<svg id="レイヤー_1" data-name="レイヤー 1" xmlns="http://www.w3.org/2000/svg" viewBox="0 0 76 14"><defs><style>.cls-1{fill:#00bfff;}.cls-2{fill:#dcdddd;}</style></defs><title>アートボード 3</title><polygon class="cls-1" points="12 10.5 12 3.5 6 0 0 3.5 0 10.5 6 14 12 10.5"/><polygon class="cls-1" points="28 10.5 28 3.5 22 0 16 3.5 16 10.5 22 14 28 10.5"/><polygon class="cls-1" points="44 10.5 44 3.5 38 0 32 3.5 32 10.5 38 14 44 10.5"/><polygon class="cls-2" points="60 10.5 60 3.5 54 0 48 3.5 48 10.5 54 14 60 10.5"/><polygon class="cls-2" points="76 10.5 76 3.5 70 0 64 3.5 64 10.5 70 14 76 10.5"/></svg>